<?xml version="1.0" encoding="UTF-8" standalone="no"?>
<svg
   width="241.61537"
   height="110"
   version="1.2"
   data-reactroot=""
   id="svg10"
   sodipodi:docname="Unity.svg"
   inkscape:version="1.3 (0e150ed6c4, 2023-07-21)"
   xmlns:inkscape="http://www.inkscape.org/namespaces/inkscape"
   xmlns:sodipodi="http://sodipodi.sourceforge.net/DTD/sodipodi-0.dtd"
   xmlns="http://www.w3.org/2000/svg"
   xmlns:svg="http://www.w3.org/2000/svg">
  <sodipodi:namedview
     id="namedview10"
     pagecolor="#ffffff"
     bordercolor="#666666"
     borderopacity="1.0"
     inkscape:showpageshadow="2"
     inkscape:pageopacity="0.0"
     inkscape:pagecheckerboard="0"
     inkscape:deskcolor="#d1d1d1"
     inkscape:zoom="1.1470588"
     inkscape:cx="143.41026"
     inkscape:cy="55.358974"
     inkscape:window-width="1920"
     inkscape:window-height="1120"
     inkscape:window-x="-11"
     inkscape:window-y="-11"
     inkscape:window-maximized="1"
     inkscape:current-layer="g10" />
  <defs
     id="defs1" />
  <g
     fill="none"
     stroke="#000000"
     stroke-width="1"
     fill-rule="evenodd"
     stroke-linecap="square"
     stroke-linejoin="bevel"
     id="g10"
     transform="translate(0.99999851,0.99999851)">
    <rect
       x="-0.2603035"
       y="-0.2603035"
       width="240.13599"
       height="108.52061"
       stroke="#eaecef"
       stroke-width="1.47939"
       id="rect2" />
    <g
       fill="#586069"
       fill-opacity="1"
       stroke="none"
       transform="matrix(1.25,0,0,1.25,17,21)"
       id="g2">
      <path
         vector-effect="none"
         fill-rule="evenodd"
         d="M 4,9 H 3 V 8 H 4 V 9 M 4,6 H 3 V 7 H 4 V 6 M 4,4 H 3 V 5 H 4 V 4 M 4,2 H 3 V 3 H 4 V 2 m 8,-1 v 12 c 0,0.55 -0.45,1 -1,1 H 6 v 2 L 4.5,14.5 3,16 V 14 H 1 C 0.45,14 0,13.55 0,13 V 1 C 0,0.45 0.45,0 1,0 h 10 c 0.55,0 1,0.45 1,1 M 11,11 H 1 v 2 h 2 v -1 h 3 v 1 h 5 V 11 M 11,1 H 2 v 9 h 9 V 1"
         id="path2" />
    </g>
    <g
       fill="#0366d6"
       fill-opacity="1"
       stroke="#0366d6"
       stroke-opacity="1"
       stroke-width="1"
       stroke-linecap="square"
       stroke-linejoin="bevel"
       id="g3">
      <a
         target=""
         href="https://github.com/ThrowTheSwitch/Unity"
         id="a2">
        <text
           fill="#0366d6"
           fill-opacity="1"
           stroke="none"
           xml:space="preserve"
           x="41"
           y="33"
           font-family="sans-serif"
           font-size="16px"
           font-weight="630"
           font-style="normal"
           id="text2">ThrowTheSwitch/Unity</text>
      </a>
    </g>
    <g
       fill="#586069"
       fill-opacity="1"
       stroke="#586069"
       stroke-opacity="1"
       stroke-width="1"
       stroke-linecap="square"
       stroke-linejoin="bevel"
       id="g4">
      <text
         fill="#586069"
         fill-opacity="1"
         stroke="none"
         xml:space="preserve"
         x="17"
         y="65"
         font-family="sans-serif"
         font-size="14px"
         font-weight="400"
         font-style="normal"
         id="text3">Simple Unit Testing for C </text>
    </g>
    <g
       fill="#24292e"
       fill-opacity="1"
       stroke="#24292e"
       stroke-opacity="1"
       stroke-width="1"
       stroke-linecap="square"
       stroke-linejoin="bevel"
       id="g5">
      <text
         fill="#24292e"
         fill-opacity="1"
         stroke="none"
         xml:space="preserve"
         x="33"
         y="91"
         font-family="sans-serif"
         font-size="12px"
         font-weight="400"
         font-style="normal"
         id="text4">C</text>
    </g>
    <g
       fill="#000000"
       fill-opacity="1"
       stroke="none"
       transform="translate(65,78)"
       id="g6">
      <a
         target=""
         href="https://github.com/ThrowTheSwitch/Unity/stargazers"
         id="a5">
        <path
           vector-effect="none"
           fill-rule="evenodd"
           d="M 14,6 9.1,5.36 7,1 4.9,5.36 0,6 3.6,9.26 2.67,14 7,11.67 11.33,14 10.4,9.26 14,6"
           id="path5" />
      </a>
    </g>
    <g
       fill="#586069"
       fill-opacity="1"
       stroke="#586069"
       stroke-opacity="1"
       stroke-width="1"
       stroke-linecap="square"
       stroke-linejoin="bevel"
       id="g7">
      <a
         target=""
         href="https://github.com/ThrowTheSwitch/Unity/stargazers"
         id="a6">
        <text
           fill="#586069"
           fill-opacity="1"
           stroke="none"
           xml:space="preserve"
           x="86"
           y="91"
           font-family="sans-serif"
           font-size="12px"
           font-weight="400"
           font-style="normal"
           id="text6">3.3k</text>
      </a>
    </g>
    <g
       fill="#000000"
       fill-opacity="1"
       stroke="none"
       transform="translate(128,78)"
       id="g8">
      <a
         target=""
         href="https://github.com/ThrowTheSwitch/Unity/network/members"
         id="a7">
        <path
           vector-effect="none"
           fill-rule="evenodd"
           d="M 10,5 C 10,3.89 9.11,3 8,3 7.0966,2.99761 6.30459,3.60318 6.07006,4.47561 5.83554,5.34804 6.21717,6.2691 7,6.72 v 0.3 C 6.98,7.54 6.77,8 6.37,8.4 5.97,8.8 5.51,9.01 4.99,9.03 4.16,9.05 3.51,9.19 2.99,9.48 V 4.72 C 3.77283,4.2691 4.15446,3.34804 3.91994,2.47561 3.68541,1.60318 2.8934,0.997613 1.99,1 0.88,1 0,1.89 0,3 0.00428689,3.71022 0.384911,4.3649 1,4.72 v 6.56 C 0.41,11.63 0,12.27 0,13 0,14.11 0.89,15 2,15 3.11,15 4,14.11 4,13 4,12.47 3.8,12 3.47,11.64 3.56,11.58 3.95,11.23 4.06,11.17 4.31,11.06 4.62,11 5,11 6.05,10.95 6.95,10.55 7.75,9.75 8.55,8.95 8.95,7.77 9,6.73 H 8.98 C 9.59,6.37 10,5.73 10,5 M 2,1.8 C 2.66,1.8 3.2,2.35 3.2,3 3.2,3.65 2.65,4.2 2,4.2 1.35,4.2 0.8,3.65 0.8,3 0.8,2.35 1.35,1.8 2,1.8 m 0,12.41 c -0.66,0 -1.2,-0.55 -1.2,-1.2 0,-0.65 0.55,-1.2 1.2,-1.2 0.65,0 1.2,0.55 1.2,1.2 0,0.65 -0.55,1.2 -1.2,1.2 m 6,-8 c -0.66,0 -1.2,-0.55 -1.2,-1.2 0,-0.65 0.55,-1.2 1.2,-1.2 0.65,0 1.2,0.55 1.2,1.2 0,0.65 -0.55,1.2 -1.2,1.2"
           id="path7" />
      </a>
    </g>
    <g
       fill="#586069"
       fill-opacity="1"
       stroke="#586069"
       stroke-opacity="1"
       stroke-width="1"
       stroke-linecap="square"
       stroke-linejoin="bevel"
       id="g9">
      <a
         target=""
         href="https://github.com/ThrowTheSwitch/Unity/network/members"
         id="a8">
        <text
           fill=""
           fill-opacity="1"
           stroke="none"
           xml:space="preserve"
           x="145"
           y="91"
           font-family="sans-serif"
           font-size="12px"
           font-weight="400"
           font-style="normal"
           id="text8">935</text>
      </a>
    </g>
    <circle
       cx="23"
       cy="86"
       r="7"
       stroke="none"
       fill="#555555"
       id="circle9" />
  </g>
</svg>
